<?xml version="1.0" encoding="UTF-8"?>
<!DOCTYPE svg PUBLIC "-//W3C//DTD SVG 1.1//EN" "http://www.w3.org/Graphics/SVG/1.1/DTD/svg11.dtd">
<!-- Creator: CorelDRAW 2021.5 -->
<svg xmlns="http://www.w3.org/2000/svg" xml:space="preserve" width="40px" height="40px" version="1.1" style="shape-rendering:geometricPrecision; text-rendering:geometricPrecision; image-rendering:optimizeQuality; fill-rule:evenodd; clip-rule:evenodd"
viewBox="0 0 40 40"
 xmlns:xlink="http://www.w3.org/1999/xlink"
 xmlns:xodm="http://www.corel.com/coreldraw/odm/2003">
 <defs>
  <style type="text/css">
   <![CDATA[
    .fil1 {fill:#412F1F}
    .fil2 {fill:#4F9546}
    .fil3 {fill:#5AA94D}
    .fil4 {fill:#6FB25C}
    .fil0 {fill:#80C463}
    .fil5 {fill:#ABA988}
    .fil6 {fill:#D3D0BB}
   ]]>
  </style>
 </defs>
 <g id="Layer_x0020_1">
  <metadata id="CorelCorpID_0Corel-Layer"/>
  <g id="_1396866268528">
   <path class="fil0" d="M20.03 40c0.25,-0.16 0.5,-0.23 0.79,-0.38l3.4 -1.83c0.01,-0.01 0.03,-0.02 0.04,-0.03l4.37 -3.27c0.01,-0.01 0.03,-0.03 0.04,-0.04l0.57 -0.53c0.73,-0.64 1.39,-1.36 2.07,-2.06 0.07,-0.07 0.06,-0.07 0.13,-0.15l0.69 -0.82c0.45,-0.48 0.91,-1.13 1.28,-1.68l0.05 -0.08c0.46,-0.67 0.95,-1.33 1.34,-2.04 0.09,-0.16 0.16,-0.25 0.23,-0.39 0.15,-0.27 0.25,-0.49 0.4,-0.77 0.36,-0.65 0.61,-1.3 0.89,-2l0.84 -2.67c0.04,-0.16 0.08,-0.31 0.13,-0.49l0.33 -1.46c0.06,-0.23 0.02,-0.34 0.05,-0.57l0.19 -0.98c0.15,-0.72 0.28,-3.53 0.34,-4.34 0.07,-0.75 -0.13,-1.45 -0.13,-2.27 0,-0.63 -0.06,-1.61 -0.18,-2.16l-0.2 -0.97c-0.17,-0.69 -0.16,-1.12 -0.45,-1.89l-0.31 -0.86c-0.05,-0.12 -0.13,-0.27 -0.18,-0.37 -0.08,-0.16 -0.13,-0.26 -0.2,-0.42 -0.52,-1 -2.54,-1.91 -3.57,-2.36 -0.11,-0.04 -0.27,-0.11 -0.39,-0.15l-1.32 -0.47c-0.24,-0.06 -0.06,-0.01 -0.21,-0.06 -0.99,-0.33 -2.09,-0.61 -3.11,-0.75 -0.25,-0.04 -0.33,-0.09 -0.5,-0.12 -0.19,-0.03 -0.35,0 -0.53,-0.03 -0.27,-0.04 -0.17,-0.09 -0.49,-0.12 -0.25,-0.03 -0.38,-0.02 -0.57,-0.06 -0.97,-0.16 -1.68,-0.23 -2.73,-0.22 -0.82,0 -1.42,-0.14 -2.27,-0.14l-1.72 0c-0.83,0 -1.43,0.14 -2.21,0.14 -0.38,0 -0.78,-0.03 -1.15,0.01 -0.71,0.1 -1.83,0.14 -2.55,0.35l-2.56 0.47c-0.66,0.1 -1.21,0.32 -1.83,0.5 -0.11,0.03 -0.12,0.03 -0.23,0.06 -0.25,0.06 -0.04,0 -0.21,0.06l-0.85 0.32c-1.28,0.51 -3.49,1.42 -4.15,2.67 -0.05,0.1 -0.05,0.09 -0.1,0.17l-0.31 0.72c-0.01,0.01 -0.02,0.03 -0.02,0.05l-0.76 2.82c-0.08,0.5 -0.09,1.13 -0.2,1.59l-0.23 3.36c0.02,0.7 0.15,1.35 0.14,2.27 0,0.74 0.22,2.34 0.39,3.13 0.04,0.21 0,0.36 0.05,0.56l0.22 0.96c0.05,0.19 0.06,0.33 0.11,0.51l1 3.26c0.01,0.01 0.02,0.03 0.02,0.05 0.05,0.12 0.06,0.13 0.1,0.24l0.73 1.62c0.69,1.25 1.41,2.5 2.27,3.65l1.85 2.28c1.13,1.24 2.35,2.37 3.63,3.46l3.06 2.24c0.73,0.49 1.5,0.87 2.26,1.32 0.47,0.29 1.91,1.03 2.42,1.16z"/>
   <path class="fil1" d="M17.73 2.99c-0.57,0.08 -1.37,0.05 -1.97,0.09 -0.47,0.02 -1.22,0.18 -1.72,0.24 -2.08,0.24 -4.44,0.82 -6.32,1.66 -0.38,0.17 -0.91,0.44 -1.3,0.68 -0.78,0.49 -0.79,0.92 -1.09,1.93 -0.21,0.74 -0.36,1.91 -0.44,2.61 -0.52,4.61 0.12,9.66 1.98,13.83 0.41,0.92 0.92,1.76 1.44,2.57 1.02,1.59 2.18,3.02 3.6,4.44 2.18,2.18 4.76,4.09 7.54,5.49 0.69,0.36 0.49,0.31 1.44,-0.16 3.38,-1.67 7.03,-4.86 9.33,-7.74 1.75,-2.19 3.46,-5.08 4.09,-7.96 0.11,-0.5 0.26,-1.14 0.37,-1.62 0.6,-2.53 0.79,-6.75 0.37,-9.3 -0.21,-1.26 -0.35,-2.05 -0.74,-3.22 -0.3,-0.89 -1.55,-1.35 -2.39,-1.7 -2.55,-1.06 -3.88,-1.16 -6.43,-1.6 -1.51,-0.26 -6.27,-0.46 -7.76,-0.24z"/>
   <path class="fil2" d="M20 5.91l0.13 0.28c0,0.01 0.03,0.28 0.03,0.3 0.01,0.2 0.01,0.4 0.01,0.6l0.07 3.72c0.08,3.88 0.08,8.68 0.03,12.6 -0.01,0.62 -0.17,1.84 -0.13,2.28 0.06,0.36 -0.02,1.06 -0.02,1.49 0.01,0.58 0.06,0.81 0.19,1.4 -0.17,0.4 0.15,0.86 0.24,1.25 0.01,0.01 0.03,0.01 0.03,0.03 0,0.01 0.02,0.02 0.03,0.02l0.47 0.55 -0.14 0.29c0.77,-1.14 2.03,-1.25 4.17,-5.11 1.31,-2.36 1.5,-5.23 1.37,-7.85 -0.1,-2.09 -1.37,-5.23 -2.41,-6.93 -0.58,-0.93 -1.27,-1.86 -2.02,-2.66 -0.37,-0.39 -0.75,-0.74 -1.13,-1.22l-0.63 -1.07c-0.05,-0.1 -0.04,-0.1 -0.09,-0.18 -0.01,-0.02 -0.02,-0.04 -0.03,-0.05 -0.01,-0.02 -0.02,-0.03 -0.03,-0.05 -0.07,-0.09 -0.06,-0.08 -0.11,-0.14l-0.03 0.45z"/>
   <path class="fil3" d="M19.62 31.2c-0.1,-0.65 -0.14,-0.56 0.17,-1.62 0.09,-0.32 0.11,-1.24 0.22,-1.63 0,-0.02 0.01,-0.04 0.01,-0.06l0.08 -0.17c0.02,0.33 -0.07,0.75 0.21,0.86 -0.13,-0.59 -0.18,-0.82 -0.19,-1.4 0,-0.43 0.08,-1.13 0.02,-1.49 -0.15,0.15 0.01,-0.07 -0.08,0.15 -0.13,0.34 0.1,-0.29 -0.03,0.11l-0.07 0.21c-0.01,-0.63 -0.15,-0.95 -0.08,-1.31 -0.25,-0.1 0.26,0.09 -0.08,-0.02 -0.08,-0.02 -0.07,-0.01 -0.12,-0.05 0.01,-0.26 -0.02,-0.16 0.07,-0.34 -0.18,-0.1 -0.15,0 -0.2,-0.17 -0.09,-0.28 -0.03,-0.24 -0.08,-0.51 -0.07,-0.38 0.01,-0.03 -0.11,-0.23 -0.01,-0.01 -0.02,-0.03 -0.03,-0.04 -0.01,-0.02 -0.02,-0.03 -0.02,-0.05 -0.01,-0.01 -0.02,-0.03 -0.02,-0.05 -0.01,-0.02 -0.01,-0.04 -0.02,-0.05 -0.16,-0.45 -0.2,-0.23 -0.23,-0.32 0,-0.02 -0.03,-0.02 -0.04,-0.03 0,-0.19 0.01,-0.41 -0.04,-0.59 -0.05,-0.18 0.01,0.03 -0.05,-0.14 -0.21,-0.52 -0.18,-0.71 -0.13,-1.26l-0.21 -0.07c0,-0.33 -0.07,-0.41 -0.07,-0.81 -0.2,0.18 -0.09,0.1 -0.4,0.05l-0.01 -0.08c-0.01,-0.01 -0.02,-0.06 -0.02,-0.07 -0.01,-0.01 -0.01,-0.03 -0.02,-0.04 -0.24,-0.66 -0.15,-0.58 -0.22,-0.78 -0.11,-0.29 -0.14,-0.17 -0.15,-0.19 -0.07,-0.09 -0.02,-0.14 -0.06,-0.25l-0.08 -0.17c-0.01,0 -0.01,-0.02 -0.02,-0.03 -0.06,-0.21 0.02,-0.4 0.02,-0.72 -0.19,-0.09 -0.18,0.05 -0.29,-0.1 -0.12,-0.16 0.03,-0.17 -0.31,-0.19 0.03,-0.48 0.02,-0.15 -0.05,-0.49 -0.02,-0.07 -0.02,-0.11 -0.03,-0.19l-0.02 -1.09c0,-0.05 -0.01,-0.13 -0.01,-0.16l0.01 -0.86c-0.14,0.14 -0.22,0.14 -0.46,0.18l-0.03 -0.43c-0.27,-0.16 -0.2,-1.1 -0.19,-1.36 -0.11,-0.04 0,-0.01 -0.27,0.01 0,-0.14 0.02,-0.2 -0.03,-0.28 -0.11,-0.19 -0.03,0.01 -0.17,-0.08 0.01,-0.19 0.02,-0.18 0.06,-0.34 -0.01,0 -0.02,0 -0.03,0l-0.19 -0.11c-0.01,-0.01 -0.02,-0.03 -0.02,-0.04 -0.27,-0.56 -0.19,-0.52 -0.16,-0.85 -0.55,0.4 -1.64,4.33 -1.69,5.2 -0.08,1.45 -0.22,1.47 -0.16,3.31 0.02,0.67 0.11,1.03 0.16,1.58 0.04,0.35 0.09,0.38 0.16,0.74 0.1,0.58 0.93,2.58 1.2,3.11 0.91,1.77 2.33,3.47 3.85,4.75 0.67,0.56 0.42,0.28 0.75,1.05z"/>
   <path class="fil4" d="M17.9 7.76c-0.71,0.37 -2.55,3.27 -2.55,3.7 -0.03,0.33 -0.11,0.29 0.16,0.85 0,0.01 0.01,0.03 0.02,0.04l0.19 0.11c0.01,0 0.02,0 0.03,0 -0.04,0.16 -0.05,0.15 -0.06,0.34 0.14,0.09 0.06,-0.11 0.17,0.08 0.05,0.08 0.03,0.14 0.03,0.28 0.27,-0.02 0.16,-0.05 0.27,-0.01 -0.01,0.26 -0.08,1.2 0.19,1.36l0.03 0.43c0.24,-0.04 0.32,-0.04 0.46,-0.18l-0.01 0.86c0,0.03 0.01,0.11 0.01,0.16l0.02 1.09c0.01,0.08 0.01,0.12 0.03,0.19 0.07,0.34 0.08,0.01 0.05,0.49 0.34,0.02 0.19,0.03 0.31,0.19 0.11,0.15 0.1,0.01 0.29,0.1 0,0.32 -0.08,0.51 -0.02,0.72 0.01,0.01 0.01,0.03 0.02,0.03l0.08 0.17c0.04,0.11 -0.01,0.16 0.06,0.25 0.01,0.02 0.04,-0.1 0.15,0.19 0.07,0.2 -0.02,0.12 0.22,0.78 0.01,0.01 0.01,0.03 0.02,0.04 0,0.01 0.01,0.06 0.02,0.07l0.01 0.08c0.31,0.05 0.2,0.13 0.4,-0.05 0,0.4 0.07,0.48 0.07,0.81l0.21 0.07c-0.05,0.55 -0.08,0.74 0.13,1.26 0.06,0.17 0,-0.04 0.05,0.14 0.05,0.18 0.04,0.4 0.04,0.59 0.01,0.01 0.04,0.01 0.04,0.03 0.03,0.09 0.07,-0.13 0.23,0.32 0.01,0.01 0.01,0.03 0.02,0.05 0,0.02 0.01,0.04 0.02,0.05 0,0.02 0.01,0.03 0.02,0.05 0.01,0.01 0.02,0.03 0.03,0.04 0.12,0.2 0.04,-0.15 0.11,0.23 0.05,0.27 -0.01,0.23 0.08,0.51 0.05,0.17 0.02,0.07 0.2,0.17 -0.09,0.18 -0.06,0.08 -0.07,0.34 0.05,0.04 0.04,0.03 0.12,0.05 0.34,0.11 -0.17,-0.08 0.08,0.02 -0.07,0.36 0.07,0.68 0.08,1.31l0.07 -0.21c0.13,-0.4 -0.1,0.23 0.03,-0.11 0.09,-0.22 -0.07,0 0.08,-0.15 -0.04,-0.44 0.12,-1.66 0.13,-2.28 0.05,-3.92 0.05,-8.72 -0.03,-12.6l-0.07 -3.72c0,-0.2 0,-0.4 -0.01,-0.6 0,-0.02 -0.03,-0.29 -0.03,-0.3l-0.13 -0.28c-0.05,0.29 0.07,1.7 0.08,2.14l0.03 6.43c-0.28,-0.29 -0.13,-0.42 -0.21,-0.74 -0.12,-0.48 -0.31,-0.02 -0.18,-0.59 -0.05,-0.01 0.07,0.16 -0.1,-0.03 -0.19,-0.2 0.2,-0.3 -0.23,-0.22 0.02,-0.42 0.13,-0.19 -0.07,-0.7 -0.07,-0.16 -0.01,-0.04 -0.08,-0.19 -0.01,-0.02 -0.02,-0.03 -0.03,-0.05 0,-0.01 -0.01,-0.03 -0.02,-0.04l-0.13 -0.3c-0.08,-0.22 -0.16,-0.13 -0.02,-0.4l-0.21 -0.07c0.25,-0.58 -0.17,-0.21 -0.3,-0.27 -0.2,-0.09 0.03,-0.24 -0.12,-0.59 -0.19,-0.41 -0.03,-0.77 -0.17,-1.3 -0.07,-0.28 -0.18,-0.07 -0.03,-0.38 -0.14,-0.03 -0.11,0.06 -0.17,-0.18 -0.03,-0.14 0.02,-0.09 -0.09,-0.15l-0.08 -0.02c0.01,-0.11 0.02,-0.22 0.02,-0.24 0,-0.17 -0.06,0.09 0.01,-0.26z"/>
   <path class="fil0" d="M17.9 7.76c-0.07,0.35 -0.01,0.09 -0.01,0.26 0,0.02 -0.01,0.13 -0.02,0.24l0.08 0.02c0.11,0.06 0.06,0.01 0.09,0.15 0.06,0.24 0.03,0.15 0.17,0.18 -0.15,0.31 -0.04,0.1 0.03,0.38 0.14,0.53 -0.02,0.89 0.17,1.3 0.15,0.35 -0.08,0.5 0.12,0.59 0.13,0.06 0.55,-0.31 0.3,0.27l0.21 0.07c-0.14,0.27 -0.06,0.18 0.02,0.4l0.13 0.3c0.01,0.01 0.02,0.03 0.02,0.04 0.01,0.02 0.02,0.03 0.03,0.05 0.07,0.15 0.01,0.03 0.08,0.19 0.2,0.51 0.09,0.28 0.07,0.7 0.43,-0.08 0.04,0.02 0.23,0.22 0.17,0.19 0.05,0.02 0.1,0.03 -0.13,0.57 0.06,0.11 0.18,0.59 0.08,0.32 -0.07,0.45 0.21,0.74l-0.03 -6.43c-0.01,-0.44 -0.13,-1.85 -0.08,-2.14l0.03 -0.45 -0.12 -0.21c-0.22,0.42 -0.11,0.69 -0.87,1.34 -0.3,0.25 -1.12,0.97 -1.14,1.17z"/>
   <path class="fil5" d="M19.62 31.2c0.17,0.41 0.04,0.84 0.28,1.24 0.09,-0.27 -0.01,-0.71 -0.01,-1.11 0.13,0.09 0.07,0.32 0.07,0.55l0.05 -0.12c0,-0.02 0.01,-0.04 0.02,-0.06l0.11 -0.3c0.08,-0.27 0.06,-0.34 0.1,-0.61 0.06,-0.39 0.04,0.11 0.17,-0.43 0.08,-0.31 -0.08,-0.43 0.14,-0.53 -0.09,-0.39 -0.41,-0.85 -0.24,-1.25 -0.28,-0.11 -0.19,-0.53 -0.21,-0.86l-0.08 0.17c0,0.02 -0.01,0.04 -0.01,0.06 -0.11,0.39 -0.13,1.31 -0.22,1.63 -0.31,1.06 -0.27,0.97 -0.17,1.62z"/>
   <path class="fil5" d="M19.9 32.44l-0.04 1.24c0.03,0.31 0.1,0.28 0.22,0.34 -0.11,-0.32 -0.08,-0.49 -0.07,-0.84 0.02,-0.55 0.05,-0.34 0.2,-0.7 0.09,-0.23 0.09,-0.41 0.17,-0.66l0.09 -0.31c0.02,-0.07 0.02,-0.11 0.03,-0.18l0.07 -0.17c0.01,-0.02 0.02,-0.04 0.03,-0.06 0.01,0.42 -0.08,1.64 -0.01,1.94l0.1 0.21c0.03,-0.89 -0.13,-1.81 0.25,-2.53l0.14 -0.29 -0.47 -0.55c-0.01,0 -0.03,-0.01 -0.03,-0.02 0,-0.02 -0.02,-0.02 -0.03,-0.03 -0.22,0.1 -0.06,0.22 -0.14,0.53 -0.13,0.54 -0.11,0.04 -0.17,0.43 -0.04,0.27 -0.02,0.34 -0.1,0.61l-0.11 0.3c-0.01,0.02 -0.02,0.04 -0.02,0.06l-0.05 0.12c0,-0.23 0.06,-0.46 -0.07,-0.55 0,0.4 0.1,0.84 0.01,1.11z"/>
   <path class="fil6" d="M20.08 34.02l0.61 0.2 0 -0.97 -0.1 -0.21c-0.07,-0.3 0.02,-1.52 0.01,-1.94 -0.01,0.02 -0.02,0.04 -0.03,0.06l-0.07 0.17c-0.01,0.07 -0.01,0.11 -0.03,0.18l-0.09 0.31c-0.08,0.25 -0.08,0.43 -0.17,0.66 -0.15,0.36 -0.18,0.15 -0.2,0.7 -0.01,0.35 -0.04,0.52 0.07,0.84z"/>
  </g>
 </g>
</svg>
