<?xml version="1.0" encoding="UTF-8"?>
<!DOCTYPE svg PUBLIC "-//W3C//DTD SVG 1.1//EN" "http://www.w3.org/Graphics/SVG/1.1/DTD/svg11.dtd">
<!-- Creator: CorelDRAW 2021.5 -->
<svg xmlns="http://www.w3.org/2000/svg" xml:space="preserve" width="1063px" height="1063px" version="1.1" style="shape-rendering:geometricPrecision; text-rendering:geometricPrecision; image-rendering:optimizeQuality; fill-rule:evenodd; clip-rule:evenodd"
viewBox="0 0 1063 1063"
 xmlns:xlink="http://www.w3.org/1999/xlink"
 xmlns:xodm="http://www.corel.com/coreldraw/odm/2003">
 <defs>
  <style type="text/css">
   <![CDATA[
    .str0 {stroke:#545454;stroke-width:2.36;stroke-miterlimit:22.9256}
    .fil0 {fill:#DCDDDD}
    .fil3 {fill:#C9CACA}
    .fil1 {fill:#005F89}
    .fil2 {fill:#E18E00}
    .fil4 {fill:#E3A948}
   ]]>
  </style>
 </defs>
 <g id="Layer_x0020_1">
  <metadata id="CorelCorpID_0Corel-Layer"/>
  <circle class="fil0 str0" cx="531" cy="532" r="531.5"/>
  <g id="_1397265629632">
   <path class="fil1" d="M439.07 549.11c3.45,0.85 2.33,1.33 5.62,8.11 14.01,28.8 16.79,36.82 41.05,61.91 9.14,9.45 19.91,19.37 31.15,27.88 9.17,6.95 23.12,24.56 32.49,27.21 -1.94,-3.85 -6.61,-6.44 -9.5,-9.24 -10.61,-10.29 -14.81,-15.08 -25.04,-28.91 -9.73,-13.17 -19.47,-28.08 -28.47,-43.55 -10.84,-18.64 -34.58,-62.45 -41.78,-84.18 -1.88,-5.68 -1.75,-10.31 -5.65,-13.86 -3.08,1.54 -13.93,16.08 -15.74,18.7 -4.74,6.85 -7.93,13.92 -10.68,23.33 -4.58,15.73 -7.52,56.73 -9.62,58.41 -10.18,4.16 -21.08,-16.85 -24.94,-25.97 -5.95,-14.02 -8.93,-24.5 -11.66,-41.48 -12.92,-80.45 25.12,-114.09 16.9,-136.86 -2.24,-6.19 -6.28,-9.79 -11.21,-14.74 -21.12,-21.19 -32.61,-63.03 -41.77,-92.4 -16.18,-51.84 -49.51,-72.13 -59.31,-99.53 -2.97,-8.29 -1.84,-16.56 4.71,-20.38 6.59,-3.85 14.21,-2.35 21.5,-0.01 11.89,3.81 27.36,10.86 37.07,16.17 5.75,3.15 10.96,6.17 16.36,9.54 6.48,4.03 8.55,7.33 14.96,12.08 9.21,6.83 8.89,3.45 20.9,5.14 28.33,3.99 32.21,-1.36 66.91,14.07 77.85,34.59 152.91,110.46 187.64,184.37 6.17,13.14 9.98,25.78 15.67,38.33 11.29,24.93 22.26,47.13 33.55,72.35 5.74,12.82 11.22,24.03 17.89,35.2 9.51,15.93 12.62,17.52 30.56,23.51 30.3,10.12 47.63,14.23 73.69,32.21 10.77,7.43 20.39,14.87 31.26,21.79 8.77,5.59 28.97,16.23 28.21,25.39 -33.91,1.23 -52.93,-0.89 -84.71,11.18 -7.93,3.01 -18.42,4.11 -22.14,11.04 0.41,5.12 8.74,19.53 11.52,23.47 14.12,20.04 38.11,37.54 59.76,48.23 29.19,14.41 53.86,25.25 78.53,47.51 2.7,2.43 5.41,6.41 10.16,7.78 -4.77,-16.16 -15.51,-22.79 -25.02,-33.94 -21.5,-25.23 -36.76,-37.11 -65.19,-53.81 -11.14,-6.54 -28.09,-17.18 -31.15,-29.47 11.36,-0.8 29.39,-8.35 48.44,-10.34 8.67,-0.91 17.71,-1.83 26.24,-3.91 5.68,-1.39 18.88,-4.4 23.56,-6.52 1.06,-6.01 -3.91,-9.32 -11.14,-18.72 -16.5,-21.46 -61.78,-52.92 -84.82,-68.23 -11.26,-7.48 -28.45,-14.43 -41.54,-20.33 -7,-3.15 -14.35,-5.71 -21.29,-8.89 -10.96,-5.02 -26.38,-43.65 -33.75,-58.14 -14.39,-28.3 -25.76,-54.83 -37.9,-85.08 -18.81,-46.86 -53.38,-90.27 -88.8,-125.22 -5.49,-5.43 -10.63,-9.81 -16.11,-14.88 -20.81,-19.27 -81.17,-63.72 -111.96,-72.21 -26.77,-7.39 -25.43,-7.77 -52.42,-9.55 -30.43,-2 -17.5,-4.96 -41.47,-19.39 -12.52,-7.54 -26.54,-15.16 -40.95,-20.08 -15.46,-5.28 -35.52,-10.11 -50.9,-2.59 -13.79,6.75 -22.62,23.55 -19.29,41.56 2.93,15.82 12.92,29.39 21.33,39.89 8.3,10.37 18.89,23.8 26.36,35.64 9.67,15.36 10.69,26.21 17.04,44.01 8.48,23.74 22.81,65.63 39.16,83.8 15.22,16.92 10.6,3.32 2.11,41.87 -5.13,23.29 -7.43,21.97 -10.18,51.09 -1.94,20.57 -1.09,37.06 2.21,56.84 5.31,31.86 22.01,68.34 42.94,80.13 16.65,9.38 33.77,1.24 39.16,-14.85 4.92,-14.67 4.37,-38.3 9.49,-52.48z"/>
   <path class="fil2" d="M755.38 907.29c-1.72,-4.74 -20.69,-16.79 -23.88,-23.88 19.82,-7.93 14.74,-28.62 14.78,-52.49 0.04,-25.77 4.43,-46.06 -12.37,-55.97 -15.77,-9.3 -39.64,-7.25 -60.96,-7.07 -11.26,0.1 -21.93,-0.59 -32.13,1.94 -33.11,8.2 -25.03,32.68 -25.04,76.1 -0.01,18 -2.52,35.57 26.21,42.03 11.54,2.59 62.03,0.3 64.31,1.5 3.74,1.95 13.59,12.85 17.95,16.18 4.59,3.52 23.41,2.3 31.13,1.66z"/>
   <path class="fil1" d="M132.08 888.88l25.89 0.32 0.03 -103.16c3.02,3.68 22.74,49.1 26.45,57.39 4.3,9.59 8.68,19.09 13.04,28.95 5.15,11.64 8.72,17.99 24.48,18.42 24.21,0.65 25.06,-15.51 39.04,-45.81l24.45 -54.52c0.29,-0.58 0.69,-1.37 1.12,-2.03 0.92,-1.42 0.73,-1.11 1.51,-1.96l0.03 102.41 26.02 0.29c0.45,-26.32 0.02,-52.96 0.06,-79.26 0.01,-10.16 2.21,-30.01 -3.5,-36.73 -5.22,-6.15 -21.52,-9.82 -32.38,-6.86 -10.79,2.94 -14.48,10.96 -18.94,21.05 -5.07,11.49 -33.59,76.95 -37.13,82.2 -12.91,-28.03 -23.48,-55.2 -35.95,-83.01 -4.81,-10.72 -7.51,-17.63 -19.5,-20.52 -10.3,-2.48 -25.3,0.49 -30.93,6.8 -6.35,7.1 -3.83,25.34 -3.84,36.07 -0.02,26.59 -0.4,53.4 0.05,79.96z"/>
   <path class="fil1" d="M435.3 872.72c-91.67,1.21 -70.85,9.32 -73.02,-68.1l-25.72 0.02c-0.2,8.89 -1.65,59.64 1.45,66.21 11.51,24.36 71.19,16.73 96.52,17.58 5.64,24.1 -16.16,20.26 -37.59,20.24 -19.13,-0.02 -41.17,-1.02 -59.96,0.11l0.04 16.96c19.45,1.06 41.24,0.21 60.92,0.23 19.74,0.01 39.41,1.25 53.28,-8.77 6.29,-4.55 10.16,-10.13 10.23,-20.35 0.13,-19.99 1.32,-79.75 -0.31,-92.14l-25.59 -0.43 -0.25 68.44z"/>
   <path class="fil2" d="M482.18 872.19l-0.31 16.74c14.11,1.43 35.38,0.33 50.07,0.25 16.1,-0.1 33.4,1.79 47.36,-4.01 15.23,-6.33 19.24,-11.1 19.47,-30.25 0.17,-14.12 1.26,-23.71 -19.55,-31.25 -36.96,-13.39 -77.64,14.09 -70.76,-29.37 2.05,-12.99 23.04,-9.09 40.48,-9.22 12.21,-0.1 40.36,1.49 50.56,-0.53l0.26 -16.45c-9.35,-1.82 -38.58,-0.55 -49.82,-0.47 -29.67,0.23 -67.53,-5.69 -67.78,32.27 -0.06,9.21 -1.03,14.9 3.45,21.35 11.65,16.74 43.93,14.6 61.35,14.62 21.51,0.02 27.73,2.09 25.25,25.1 -1.59,14.69 -25.43,10.8 -39.27,10.91 -15.65,0.13 -35.73,-1.17 -50.76,0.31z"/>
   <path class="fil3" d="M686.15 872.07c-3.04,-6.63 -15.68,-12.04 -18.81,-19.55 7.57,-0.04 25.15,-1.91 30.39,1.59 5.7,3.79 11.11,11.31 17.22,15.19 9.88,-3.63 6.91,-18.3 7,-30.38 0.28,-39.58 5.23,-53.15 -19.98,-53.69 -12.35,-0.26 -25.71,-0.31 -38.05,0.01 -12.79,0.32 -19.92,3.37 -19.93,16.64 -0.01,12.34 -0.06,24.69 0.02,37.04 0.16,26.72 -5.42,36.3 42.14,33.15z"/>
   <path class="fil2" d="M879.28 889.18l0.09 -17.22c-16.31,-0.11 -32.38,0.1 -48.42,-0.05 -13.26,-0.13 -36.71,3.39 -40.89,-8.08 -2.13,-5.81 -0.79,-82.54 -0.91,-96.03l-26.15 -0.16c-0.11,19.89 0.08,39.61 0.08,59.28 0,41.11 -7.22,62.25 55.87,62.24 20.07,0 40.27,0.25 60.33,0.02z"/>
   <path class="fil2" d="M907.71 852.43c-25.2,5.58 -17.92,42.4 8.19,37.63 23.34,-4.26 17.13,-43.23 -8.19,-37.63z"/>
   <path class="fil1" d="M385.22 253.92c0.8,6.34 9.7,12.88 13.74,18.97 4.08,6.16 6.75,16.55 10.98,21.8 4.35,-1.94 7.23,-6.42 8.94,-12.74 2.27,-8.42 0.53,-11.14 -2.8,-17.21 -6.46,-11.77 -17.96,-14.6 -30.86,-10.82z"/>
   <path class="fil3" d="M907.72 856.46c-19.9,5.41 -11.44,35.94 8.43,29.56 17.63,-5.66 11.42,-34.97 -8.43,-29.56z"/>
   <path class="fil4" d="M905.95 882.49l1.84 -4.61c0.14,-0.92 -0.04,-2.98 0.16,-4.44 7.98,-0.25 2.07,8.99 12.41,8.82 -0.85,-4.08 -2.93,-6.23 -4.7,-9.34 7.97,-3.46 5.55,-9.07 3.46,-11.08 -2.8,-2.7 -11.13,-2.22 -15.25,-1.84l-0.56 18.03c0.8,6.47 -0.59,2.78 2.64,4.46z"/>
  </g>
 </g>
</svg>
