<?xml version="1.0" encoding="UTF-8"?>
<!DOCTYPE svg PUBLIC "-//W3C//DTD SVG 1.1//EN" "http://www.w3.org/Graphics/SVG/1.1/DTD/svg11.dtd">
<!-- Creator: CorelDRAW 2021.5 -->
<svg xmlns="http://www.w3.org/2000/svg" xml:space="preserve" width="472px" height="472px" version="1.1" style="shape-rendering:geometricPrecision; text-rendering:geometricPrecision; image-rendering:optimizeQuality; fill-rule:evenodd; clip-rule:evenodd"
viewBox="0 0 472 472"
 xmlns:xlink="http://www.w3.org/1999/xlink"
 xmlns:xodm="http://www.corel.com/coreldraw/odm/2003">
 <defs>
  <style type="text/css">
   <![CDATA[
    .fil3 {fill:#45AC4E}
    .fil0 {fill:#869DA5}
    .fil2 {fill:#ABBCC3}
    .fil1 {fill:#E3E7EB}
    .fil4 {fill:#FDFFFD}
   ]]>
  </style>
 </defs>
 <g id="Layer_x0020_1">
  <metadata id="CorelCorpID_0Corel-Layer"/>
  <g id="_2600916284832">
   <path class="fil0" d="M26.97 78.45l5.82 6.92c16.54,22.96 25.13,32.9 60.62,45.58 36.19,12.94 59.81,19.28 103.58,19.86 47.27,0.62 108.17,-8.72 147.07,-33.93 19.91,-12.9 16.37,-15.88 29.99,-33.31 0,-37.34 -29.52,-53.64 -59.43,-65.03 -85.89,-32.71 -278.19,-24.35 -287.65,59.91z"/>
   <path class="fil1" d="M228.18 354.97l-0.26 8.95c0.18,23.56 5.11,39.82 14.59,56.51 5.03,8.85 8.44,13.18 14.83,19.84 10.37,10.81 13.49,8.7 20.06,18.63 13.77,3.46 25.83,11.62 41.47,13.54 1.12,0.14 2.21,0.23 3.31,0.34l25.94 0c57.51,-6.21 92.18,-53.66 95.35,-102.85l0 -14.75c-2.48,-37.96 -24.27,-74.59 -69.42,-91.71 -37.69,-7.26 -70.28,-8.53 -99.85,12.35 -9.89,6.98 -24.42,22.79 -30.15,32.33 -9.55,15.93 -13.19,26.32 -15.87,46.82z"/>
   <path class="fil2" d="M26.97 178.79c23.06,33.01 24.26,36.73 68.57,52.46 64.62,22.93 193.81,20.92 249.68,-20.05 17.12,-12.55 16.88,-17.92 28.83,-33.02l0 -94.61c-13.62,17.43 -10.08,20.41 -29.99,33.31 -38.9,25.21 -99.8,34.55 -147.07,33.93 -43.77,-0.58 -67.39,-6.92 -103.58,-19.86 -35.49,-12.68 -44.08,-22.62 -60.62,-45.58l-5.82 -6.92 0 100.34z"/>
   <path class="fil3" d="M312.44 277.31c-118.03,33.44 -67.58,207.07 47.71,174.51 41.84,-11.81 77.11,-56.15 62.06,-111.01 -10.74,-39.2 -51.6,-79.98 -109.77,-63.5z"/>
   <path class="fil2" d="M277.4 458.9c-6.57,-9.93 -9.69,-7.82 -20.06,-18.63 -6.39,-6.66 -9.8,-10.99 -14.83,-19.84 -9.48,-16.69 -14.41,-32.95 -14.59,-56.51 -28.54,14.1 -90.21,-0.85 -120.91,-9.81 -34.2,-9.99 -59.48,-20.44 -73.87,-46.95l-4.5 -7.81c-0.29,-1.55 -1.07,-1.83 -1.67,-2.71l0 87.02c3.36,30.77 16.85,46.03 63.4,63.9 24.71,9.49 57.5,14.67 86.35,17.78 40.78,4.4 67.83,-6.44 100.68,-6.44z"/>
   <path class="fil2" d="M124.14 250.2c4.05,11.55 3.49,29.15 3.48,45.56l-0.29 38.37c-4.04,18.32 -0.53,6.35 -5.62,12.77 11.32,-0.02 33.45,5.46 47.97,6.5 19.49,1.4 39.14,-0.56 58.5,1.57 2.68,-20.5 6.32,-30.89 15.87,-46.82 5.73,-9.54 20.26,-25.35 30.15,-32.33 29.57,-20.88 62.16,-19.61 99.85,-12.35l0 -71.43c-12.81,23.23 -15.67,28.11 -41.35,41.6 -14.42,7.57 -41.64,15.76 -60.83,19.55 -33.23,6.56 -119.92,11.06 -147.73,-2.99z"/>
   <path class="fil2" d="M26.97 286.17c6.49,9.69 8.04,13.17 15.26,22.03 10.75,13.18 4.39,7.95 21.07,17.39 16.19,9.15 37.26,16.51 58.41,21.31 5.09,-6.42 1.58,5.55 5.62,-12.77l0.29 -38.37c0.01,-16.41 0.57,-34.01 -3.48,-45.56 -31.57,-5.3 -73.8,-20.56 -89.54,-48.47 -2.57,-4.56 -1.28,-2.41 -4.27,-7.36l-3.36 -5.08 0 96.88z"/>
   <path class="fil0" d="M26.97 189.29l3.36 5.08c2.99,4.95 1.7,2.8 4.27,7.36 15.74,27.91 57.97,43.17 89.54,48.47 27.81,14.05 114.5,9.55 147.73,2.99 19.19,-3.79 46.41,-11.98 60.83,-19.55 25.68,-13.49 28.54,-18.37 41.35,-41.6l0 -13.86c-11.95,15.1 -11.71,20.47 -28.83,33.02 -55.87,40.97 -185.06,42.98 -249.68,20.05 -44.31,-15.73 -45.51,-19.45 -68.57,-52.46l0 10.5z"/>
   <path class="fil4" d="M304.83 406.61l69.75 -44.95 -30.98 -18.13c-14.26,-8 -24.12,-14.99 -38.83,-20.62l0.06 83.7z"/>
   <path class="fil0" d="M26.97 296.64c0.6,0.88 1.38,1.16 1.67,2.71l4.5 7.81c14.39,26.51 39.67,36.96 73.87,46.95 30.7,8.96 92.37,23.91 120.91,9.81l0.26 -8.95c-19.36,-2.13 -39.01,-0.17 -58.5,-1.57 -14.52,-1.04 -36.65,-6.52 -47.97,-6.5 -21.15,-4.8 -42.22,-12.16 -58.41,-21.31 -16.68,-9.44 -10.32,-4.21 -21.07,-17.39 -7.22,-8.86 -8.77,-12.34 -15.26,-22.03l0 10.47z"/>
  </g>
 </g>
</svg>
